<svg width="106" height="42" viewBox="0 0 106 42" fill="none" xmlns="http://www.w3.org/2000/svg">
<line x1="10" y1="2.75" x2="1" y2="2.75" stroke="white" stroke-width="1.5"/>
<line x1="10" y1="36.75" x2="1" y2="36.75" stroke="white" stroke-width="1.5"/>
<line x1="1.75" y1="3" x2="1.75" y2="36" stroke="white" stroke-width="1.5"/>
<line y1="-0.75" x2="9" y2="-0.75" transform="matrix(1 0 0 -1 96 2)" stroke="white" stroke-width="1.5"/>
<line y1="-0.75" x2="9" y2="-0.75" transform="matrix(1 0 0 -1 96 36)" stroke="white" stroke-width="1.5"/>
<line y1="-0.75" x2="33" y2="-0.75" transform="matrix(0 1 1 0 105 3)" stroke="white" stroke-width="1.5"/>
<path d="M18.915 27V10.6719H20.1504V25.8398H24.8447V27H18.915ZM32.1387 27L31.3975 23.0469H27.0684L26.3271 27H25.0703L28.2822 10.6611H30.1836L33.3955 27H32.1387ZM27.2832 21.9189H31.1826L29.292 11.8105H29.1846L27.2832 21.9189ZM35.0928 27V10.6719H37.0479L41.2158 25.5391V10.6719H42.4189L42.4834 27H40.5713L36.2959 12.1006V27H35.0928ZM48.9072 10.6826C49.43 10.6826 49.8812 10.7471 50.2607 10.876C50.6403 11.0049 50.959 11.1803 51.2168 11.4023C51.4818 11.6243 51.693 11.8893 51.8506 12.1973C52.0153 12.498 52.1406 12.8275 52.2266 13.1855C52.3125 13.5365 52.3698 13.9089 52.3984 14.3027C52.4271 14.6966 52.4414 15.0941 52.4414 15.4951V22.1875C52.4414 22.5885 52.4271 22.986 52.3984 23.3799C52.3698 23.7738 52.3125 24.1497 52.2266 24.5078C52.1406 24.8659 52.0153 25.1989 51.8506 25.5068C51.693 25.8076 51.4818 26.069 51.2168 26.291C50.959 26.513 50.6367 26.6885 50.25 26.8174C49.8704 26.9391 49.4193 27 48.8965 27H45.5127V10.6826H48.9072ZM46.748 11.8535V25.8398H49.0146C49.4157 25.8327 49.7559 25.7575 50.0352 25.6143C50.3216 25.471 50.5508 25.2526 50.7227 24.959C50.9017 24.6582 51.0306 24.2822 51.1094 23.8311C51.1953 23.3727 51.2383 22.8213 51.2383 22.1768V15.5166C51.2383 14.8649 51.1953 14.3063 51.1094 13.8408C51.0306 13.3753 50.8981 12.9958 50.7119 12.7021C50.5329 12.4085 50.293 12.1937 49.9922 12.0576C49.6914 11.9215 49.3262 11.8535 48.8965 11.8535H46.748ZM61.7656 16.6768C61.7656 17.443 61.6868 18.0732 61.5293 18.5674C61.3717 19.0615 61.1354 19.4518 60.8203 19.7383C60.5124 20.0247 60.1292 20.2253 59.6709 20.3398C59.2197 20.4544 58.7005 20.5117 58.1133 20.5117H56.2441V27H55.0195V10.6719H58.2744C58.8115 10.6719 59.2949 10.7363 59.7246 10.8652C60.1543 10.987 60.5195 11.1947 60.8203 11.4883C61.1211 11.7819 61.3538 12.1722 61.5186 12.6592C61.6833 13.139 61.7656 13.737 61.7656 14.4531V16.6768ZM60.5195 14.4531C60.5195 14.0306 60.4801 13.6582 60.4014 13.3359C60.3226 13.0065 60.1937 12.7344 60.0146 12.5195C59.8428 12.2975 59.6136 12.1328 59.3271 12.0254C59.0479 11.9108 58.7005 11.8535 58.2852 11.8535H56.2441V19.3623H58.1133C58.5501 19.3623 58.9189 19.3158 59.2197 19.2227C59.5277 19.1296 59.7783 18.9792 59.9717 18.7715C60.165 18.5566 60.3047 18.2809 60.3906 17.9443C60.4766 17.6006 60.5195 17.1781 60.5195 16.6768V14.4531ZM68.9844 27L68.2432 23.0469H63.9141L63.1729 27H61.916L65.1279 10.6611H67.0293L70.2412 27H68.9844ZM64.1289 21.9189H68.0283L66.1377 11.8105H66.0303L64.1289 21.9189ZM78.5771 22.2627V22.585C78.5771 22.9215 78.5628 23.2689 78.5342 23.627C78.5055 23.9779 78.4482 24.3252 78.3623 24.6689C78.2764 25.0055 78.1546 25.3278 77.9971 25.6357C77.8395 25.9365 77.6283 26.2015 77.3633 26.4307C77.0983 26.6598 76.7725 26.8424 76.3857 26.9785C76.0062 27.1074 75.5514 27.1719 75.0215 27.1719C74.4772 27.1719 74.0081 27.1038 73.6143 26.9678C73.2275 26.8317 72.9017 26.6455 72.6367 26.4092C72.3717 26.1729 72.1605 25.8971 72.0029 25.582C71.8525 25.2598 71.738 24.9196 71.6592 24.5615C71.5804 24.1963 71.5267 23.8203 71.498 23.4336C71.4766 23.0397 71.4658 22.653 71.4658 22.2734V15.4092C71.4658 15.0153 71.4766 14.6214 71.498 14.2275C71.5267 13.8337 71.5804 13.4541 71.6592 13.0889C71.7451 12.7236 71.8669 12.3835 72.0244 12.0684C72.182 11.7533 72.3896 11.4811 72.6475 11.252C72.9124 11.0228 73.2383 10.8402 73.625 10.7041C74.0117 10.568 74.4736 10.5 75.0107 10.5H75.0215C75.5658 10.5 76.0312 10.5716 76.418 10.7148C76.8118 10.8509 77.1377 11.0335 77.3955 11.2627C77.6605 11.4919 77.8717 11.7604 78.0293 12.0684C78.1868 12.3763 78.305 12.6986 78.3838 13.0352C78.4626 13.3717 78.5127 13.7191 78.5342 14.0771C78.5628 14.4281 78.5771 14.7646 78.5771 15.0869V15.3984H77.3311V15.0869C77.3311 14.6286 77.306 14.1917 77.2559 13.7764C77.2129 13.3538 77.109 12.9886 76.9443 12.6807C76.7868 12.3656 76.554 12.1149 76.2461 11.9287C75.9453 11.7425 75.5371 11.6494 75.0215 11.6494C74.4987 11.6494 74.0833 11.7461 73.7754 11.9395C73.4746 12.1328 73.2419 12.4014 73.0771 12.7451C72.9196 13.0817 72.8158 13.4792 72.7656 13.9375C72.7227 14.3958 72.7012 14.8936 72.7012 15.4307V22.252C72.7012 22.5885 72.7083 22.9144 72.7227 23.2295C72.737 23.5446 72.7692 23.8418 72.8193 24.1211C72.8695 24.4004 72.9447 24.6582 73.0449 24.8945C73.1452 25.1237 73.2812 25.3206 73.4531 25.4854C73.625 25.6501 73.8363 25.779 74.0869 25.8721C74.3447 25.9652 74.6562 26.0117 75.0215 26.0117C75.5156 26.0117 75.9131 25.9258 76.2139 25.7539C76.5146 25.5749 76.7474 25.3314 76.9121 25.0234C77.084 24.7155 77.195 24.3538 77.2451 23.9385C77.3024 23.516 77.3311 23.0612 77.3311 22.5742V22.2627H78.5771ZM80.9082 27V10.6719H82.1436V18.1914H83.6475L86.9131 10.6826H88.2559L84.8076 18.7285L88.5889 27H87.2354L83.6797 19.3623H82.1436V27H80.9082Z" fill="white"/>
<path d="M25.4515 40V33.6763C25.3313 33.6528 25.2083 33.6323 25.0823 33.6147C24.9593 33.5972 24.8406 33.5884 24.7264 33.5884C24.5242 33.5884 24.366 33.6118 24.2518 33.6587C24.1375 33.7026 24.0511 33.7715 23.9925 33.8652C23.9368 33.9561 23.9017 34.0703 23.887 34.208C23.8724 34.3428 23.865 34.4995 23.865 34.6782V34.7134H24.9153V35.478H23.865V40H23.0389V35.478H22.4764V34.7134H23.0389V34.6782C23.0389 34.4087 23.0564 34.1611 23.0916 33.9355C23.1268 33.71 23.2 33.5166 23.3113 33.3555C23.4256 33.1943 23.5896 33.0698 23.8035 32.9819C24.0174 32.8911 24.3045 32.8457 24.6648 32.8457C24.8406 32.8457 25.0149 32.8589 25.1878 32.8853C25.3606 32.9116 25.5203 32.9438 25.6668 32.9819C25.8162 33.02 25.9437 33.061 26.0491 33.105C26.1575 33.146 26.2322 33.1812 26.2732 33.2104V40H25.4515ZM31.0668 38.2158V38.3125C31.0668 38.541 31.0507 38.7622 31.0185 38.9761C30.9862 39.187 30.9174 39.3745 30.8119 39.5386C30.7094 39.7026 30.56 39.8345 30.3637 39.9341C30.1674 40.0308 29.9052 40.0791 29.5771 40.0791C29.2431 40.0791 28.9765 40.0249 28.7772 39.9165C28.581 39.8052 28.4301 39.6587 28.3246 39.4771C28.2191 39.2954 28.1503 39.0889 28.1181 38.8574C28.0858 38.626 28.0697 38.3872 28.0697 38.1411V36.5767C28.0697 36.4097 28.0756 36.2456 28.0873 36.0845C28.102 35.9233 28.1283 35.771 28.1664 35.6274C28.2045 35.4839 28.2572 35.3506 28.3246 35.2275C28.3949 35.1045 28.4857 34.999 28.5971 34.9111C28.7084 34.8232 28.8432 34.7544 29.0014 34.7046C29.1596 34.6548 29.3485 34.6299 29.5683 34.6299C29.8993 34.6299 30.163 34.6812 30.3593 34.7837C30.5585 34.8862 30.7094 35.0225 30.8119 35.1924C30.9174 35.3594 30.9862 35.5498 31.0185 35.7637C31.0507 35.9775 31.0668 36.1958 31.0668 36.4185V37.4072L28.8871 37.7939V38.1455C28.8871 38.292 28.8915 38.4341 28.9003 38.5718C28.9091 38.7065 28.9355 38.8281 28.9794 38.9365C29.0233 39.042 29.0907 39.127 29.1815 39.1914C29.2753 39.2559 29.4042 39.2881 29.5683 39.2881C29.7265 39.2881 29.851 39.2617 29.9418 39.209C30.0326 39.1562 30.1 39.0859 30.1439 38.998C30.1908 38.9072 30.2201 38.8032 30.2318 38.686C30.2436 38.5688 30.2494 38.4458 30.2494 38.3169V38.2158H31.0668ZM29.5683 35.4209C29.4101 35.4209 29.2855 35.4517 29.1947 35.5132C29.1039 35.5747 29.0351 35.6582 28.9882 35.7637C28.9442 35.8691 28.9164 35.9922 28.9047 36.1328C28.893 36.2705 28.8871 36.4155 28.8871 36.5679V37.0776L30.2494 36.8184V36.4097C30.2494 36.2896 30.245 36.1709 30.2362 36.0537C30.2274 35.9336 30.2011 35.8267 30.1571 35.7329C30.1132 35.6392 30.0443 35.5645 29.9506 35.5088C29.8598 35.4502 29.7323 35.4209 29.5683 35.4209ZM34.7881 40L33.9663 38.0181L33.1313 40H32.3184L33.4741 37.2534L32.3843 34.7178H33.25L34.0015 36.5371L34.7749 34.7178H35.5835L34.4937 37.2534L35.6494 40H34.7881ZM37.0108 33.5049C37.0108 33.2178 37.1749 33.0742 37.503 33.0742C37.6847 33.0742 37.815 33.1108 37.8941 33.1841C37.9732 33.2544 38.0128 33.3613 38.0128 33.5049C38.0128 33.6455 37.9732 33.751 37.8941 33.8213C37.815 33.8887 37.6847 33.9224 37.503 33.9224C37.1749 33.9224 37.0108 33.7832 37.0108 33.5049ZM37.0987 40V34.7178H37.9205V40H37.0987ZM39.8928 40V33.1094H40.7146V35.2627C40.779 35.0752 40.8786 34.9229 41.0134 34.8057C41.1481 34.6885 41.3327 34.6299 41.5671 34.6299C41.8659 34.6299 42.1032 34.6855 42.279 34.7969C42.4548 34.9053 42.5866 35.0503 42.6745 35.2319C42.7653 35.4136 42.8239 35.6216 42.8503 35.856C42.8767 36.0874 42.8898 36.3262 42.8898 36.5723V38.1367C42.8898 38.3887 42.8767 38.6318 42.8503 38.8662C42.8239 39.0977 42.7653 39.3042 42.6745 39.4858C42.5866 39.6646 42.4548 39.8081 42.279 39.9165C42.1062 40.0249 41.8718 40.0791 41.5759 40.0791C41.3356 40.0791 41.1481 40.0205 41.0134 39.9033C40.8815 39.7861 40.7819 39.6338 40.7146 39.4463V40H39.8928ZM41.3913 35.4209C41.2448 35.4209 41.1276 35.4546 41.0397 35.522C40.9519 35.5864 40.883 35.6729 40.8332 35.7812C40.7863 35.8867 40.7556 36.0083 40.7409 36.146C40.7263 36.2808 40.7175 36.4199 40.7146 36.5635V38.1455C40.7146 38.2832 40.7204 38.4209 40.7321 38.5586C40.7468 38.6934 40.7775 38.8149 40.8244 38.9233C40.8713 39.0317 40.9387 39.1196 41.0266 39.187C41.1174 39.2544 41.239 39.2881 41.3913 39.2881C41.5495 39.2881 41.6726 39.2573 41.7605 39.1958C41.8513 39.1343 41.9187 39.0508 41.9626 38.9453C42.0095 38.8398 42.0373 38.7183 42.0461 38.5806C42.0578 38.4429 42.0637 38.2979 42.0637 38.1455V36.5591C42.0637 36.4155 42.0593 36.2749 42.0505 36.1372C42.0417 35.9995 42.0153 35.8779 41.9714 35.7725C41.9304 35.667 41.8645 35.582 41.7736 35.5176C41.6828 35.4531 41.5554 35.4209 41.3913 35.4209ZM44.6995 40V33.1094H45.5257V40H44.6995ZM50.3324 38.2158V38.3125C50.3324 38.541 50.3163 38.7622 50.2841 38.9761C50.2519 39.187 50.183 39.3745 50.0775 39.5386C49.975 39.7026 49.8256 39.8345 49.6293 39.9341C49.433 40.0308 49.1708 40.0791 48.8427 40.0791C48.5087 40.0791 48.2421 40.0249 48.0429 39.9165C47.8466 39.8052 47.6957 39.6587 47.5902 39.4771C47.4848 39.2954 47.4159 39.0889 47.3837 38.8574C47.3515 38.626 47.3354 38.3872 47.3354 38.1411V36.5767C47.3354 36.4097 47.3412 36.2456 47.3529 36.0845C47.3676 35.9233 47.3939 35.771 47.432 35.6274C47.4701 35.4839 47.5229 35.3506 47.5902 35.2275C47.6605 35.1045 47.7514 34.999 47.8627 34.9111C47.974 34.8232 48.1088 34.7544 48.267 34.7046C48.4252 34.6548 48.6142 34.6299 48.8339 34.6299C49.1649 34.6299 49.4286 34.6812 49.6249 34.7837C49.8241 34.8862 49.975 35.0225 50.0775 35.1924C50.183 35.3594 50.2519 35.5498 50.2841 35.7637C50.3163 35.9775 50.3324 36.1958 50.3324 36.4185V37.4072L48.1527 37.7939V38.1455C48.1527 38.292 48.1571 38.4341 48.1659 38.5718C48.1747 38.7065 48.2011 38.8281 48.245 38.9365C48.289 39.042 48.3563 39.127 48.4472 39.1914C48.5409 39.2559 48.6698 39.2881 48.8339 39.2881C48.9921 39.2881 49.1166 39.2617 49.2074 39.209C49.2982 39.1562 49.3656 39.0859 49.4096 38.998C49.4564 38.9072 49.4857 38.8032 49.4975 38.686C49.5092 38.5688 49.515 38.4458 49.515 38.3169V38.2158H50.3324ZM48.8339 35.4209C48.6757 35.4209 48.5512 35.4517 48.4604 35.5132C48.3695 35.5747 48.3007 35.6582 48.2538 35.7637C48.2099 35.8691 48.182 35.9922 48.1703 36.1328C48.1586 36.2705 48.1527 36.4155 48.1527 36.5679V37.0776L49.515 36.8184V36.4097C49.515 36.2896 49.5106 36.1709 49.5019 36.0537C49.4931 35.9336 49.4667 35.8267 49.4228 35.7329C49.3788 35.6392 49.31 35.5645 49.2162 35.5088C49.1254 35.4502 48.9979 35.4209 48.8339 35.4209ZM54.69 41.6084V34.7178H55.5118V35.2583C55.5763 35.0708 55.6744 34.9199 55.8063 34.8057C55.941 34.6885 56.1256 34.6299 56.36 34.6299C56.5592 34.6299 56.7306 34.6562 56.8741 34.709C57.0177 34.7588 57.1378 34.8291 57.2345 34.9199C57.3341 35.0078 57.4132 35.1133 57.4718 35.2363C57.5304 35.3564 57.5743 35.4883 57.6036 35.6318C57.6358 35.7754 57.6563 35.9277 57.6651 36.0889C57.6769 36.2471 57.6827 36.4082 57.6827 36.5723V38.1367C57.6827 38.3887 57.6695 38.6318 57.6432 38.8662C57.6168 39.0977 57.5582 39.3042 57.4674 39.4858C57.3795 39.6646 57.2477 39.8081 57.0719 39.9165C56.899 40.0249 56.6646 40.0791 56.3688 40.0791C56.1314 40.0791 55.9454 40.022 55.8106 39.9077C55.6788 39.7905 55.5792 39.6382 55.5118 39.4507V41.6084H54.69ZM56.1886 39.2881C56.3468 39.2881 56.4698 39.2573 56.5577 39.1958C56.6485 39.1343 56.7159 39.0508 56.7599 38.9453C56.8067 38.8398 56.8346 38.7183 56.8434 38.5806C56.8551 38.4429 56.8609 38.2979 56.8609 38.1455V36.5591C56.8609 36.4155 56.8565 36.2749 56.8478 36.1372C56.839 35.9995 56.8126 35.8779 56.7687 35.7725C56.7276 35.667 56.6617 35.582 56.5709 35.5176C56.4801 35.4531 56.3526 35.4209 56.1886 35.4209C56.0421 35.4209 55.9249 35.4546 55.837 35.522C55.7491 35.5864 55.6803 35.6729 55.6305 35.7812C55.5836 35.8867 55.5528 36.0083 55.5382 36.146C55.5235 36.2808 55.5147 36.4199 55.5118 36.5635V38.1455C55.5118 38.2832 55.5177 38.4209 55.5294 38.5586C55.544 38.6934 55.5748 38.8149 55.6217 38.9233C55.6686 39.0317 55.7359 39.1196 55.8238 39.187C55.9146 39.2544 56.0362 39.2881 56.1886 39.2881ZM61.571 40V39.4243C61.5358 39.521 61.4934 39.6104 61.4436 39.6924C61.3937 39.7744 61.3337 39.8447 61.2634 39.9033C61.1931 39.959 61.111 40.0029 61.0173 40.0352C60.9265 40.0674 60.821 40.0835 60.7009 40.0835C60.4313 40.0835 60.2102 40.0396 60.0373 39.9517C59.8645 39.8638 59.7282 39.7451 59.6286 39.5957C59.529 39.4463 59.4602 39.272 59.4221 39.0728C59.384 38.8706 59.3649 38.6567 59.3649 38.4312C59.3649 38.2202 59.3781 38.0254 59.4045 37.8467C59.4338 37.665 59.4938 37.5098 59.5847 37.3809C59.6784 37.249 59.8117 37.1465 59.9846 37.0732C60.1604 36.9971 60.3962 36.959 60.6921 36.959C60.903 36.959 61.0759 36.9736 61.2106 37.0029C61.3454 37.0293 61.4641 37.0615 61.5666 37.0996V36.5635C61.5666 36.4111 61.5607 36.2661 61.549 36.1284C61.5402 35.9907 61.5139 35.8691 61.4699 35.7637C61.426 35.6582 61.3586 35.5747 61.2678 35.5132C61.177 35.4517 61.0524 35.4209 60.8942 35.4209C60.7478 35.4209 60.6306 35.4502 60.5427 35.5088C60.4577 35.5645 60.3933 35.6377 60.3493 35.7285C60.3054 35.8193 60.2761 35.9219 60.2614 36.0361C60.2497 36.1475 60.2438 36.2573 60.2438 36.3657V36.4536H59.4221V36.3745C59.4221 36.1636 59.4396 35.9541 59.4748 35.7461C59.51 35.5381 59.5788 35.3521 59.6813 35.188C59.7868 35.021 59.9348 34.8862 60.1252 34.7837C60.3186 34.6812 60.5734 34.6299 60.8898 34.6299C61.1887 34.6299 61.4348 34.6753 61.6281 34.7661C61.8244 34.854 61.9782 34.9756 62.0896 35.1309C62.2009 35.2832 62.2785 35.4634 62.3225 35.6714C62.3664 35.8765 62.3884 36.0962 62.3884 36.3306V40H61.571ZM60.8767 39.2925C61.0202 39.2925 61.1359 39.2617 61.2238 39.2002C61.3146 39.1357 61.385 39.0537 61.4348 38.9541C61.4846 38.8516 61.5183 38.7358 61.5358 38.6069C61.5563 38.478 61.5666 38.3477 61.5666 38.2158V37.8159C61.4875 37.7632 61.3923 37.7222 61.281 37.6929C61.1726 37.6636 61.0334 37.6489 60.8635 37.6489C60.7053 37.6489 60.5808 37.6724 60.4899 37.7192C60.4021 37.7661 60.3361 37.8276 60.2922 37.9038C60.2482 37.98 60.2204 38.0649 60.2087 38.1587C60.197 38.2524 60.1911 38.3477 60.1911 38.4443C60.1911 38.5586 60.1999 38.6685 60.2175 38.7739C60.2351 38.8765 60.2687 38.9658 60.3186 39.042C60.3713 39.1182 60.4416 39.1797 60.5295 39.2266C60.6203 39.2705 60.736 39.2925 60.8767 39.2925ZM66.3646 38.2642H67.1819V38.3345C67.1819 38.478 67.1746 38.6216 67.16 38.7651C67.1482 38.9058 67.1233 39.042 67.0853 39.1738C67.0501 39.3027 66.9974 39.4229 66.9271 39.5342C66.8597 39.6426 66.7703 39.7378 66.659 39.8198C66.5506 39.9019 66.4173 39.9648 66.2591 40.0088C66.1009 40.0557 65.9119 40.0791 65.6922 40.0791C65.4725 40.0791 65.282 40.0542 65.1209 40.0044C64.9598 39.9546 64.8235 39.8857 64.7122 39.7979C64.6009 39.707 64.5101 39.6016 64.4397 39.4814C64.3724 39.3584 64.3196 39.2251 64.2815 39.0815C64.2435 38.938 64.2171 38.7871 64.2024 38.6289C64.1907 38.4678 64.1849 38.3052 64.1849 38.1411V36.814C64.1849 36.7319 64.1849 36.6514 64.1849 36.5723C64.1849 36.4932 64.1863 36.4126 64.1893 36.3306C64.1922 36.0962 64.2156 35.8765 64.2596 35.6714C64.3035 35.4634 64.3812 35.2832 64.4925 35.1309C64.6038 34.9756 64.7547 34.854 64.9451 34.7661C65.1385 34.6753 65.3846 34.6299 65.6834 34.6299C66.0145 34.6299 66.2781 34.6812 66.4744 34.7837C66.6736 34.8862 66.8245 35.021 66.9271 35.188C67.0325 35.3521 67.1014 35.5381 67.1336 35.7461C67.1658 35.9541 67.1819 36.1636 67.1819 36.3745V36.4536H66.3646V36.3657C66.3646 36.2573 66.3602 36.1475 66.3514 36.0361C66.3426 35.9219 66.3162 35.8193 66.2723 35.7285C66.2283 35.6377 66.1595 35.5645 66.0657 35.5088C65.9749 35.4502 65.8475 35.4209 65.6834 35.4209C65.5252 35.4209 65.4007 35.4517 65.3099 35.5132C65.219 35.5747 65.1517 35.6582 65.1077 35.7637C65.0638 35.8691 65.0359 35.9907 65.0242 36.1284C65.0154 36.2661 65.011 36.4111 65.011 36.5635V37.7588C65.011 37.9082 65.011 38.0547 65.011 38.1982C65.014 38.3418 65.0198 38.4824 65.0286 38.6201C65.0374 38.708 65.0535 38.793 65.077 38.875C65.1033 38.9541 65.1399 39.0244 65.1868 39.0859C65.2366 39.1475 65.3011 39.1973 65.3802 39.2354C65.4622 39.2705 65.5633 39.2881 65.6834 39.2881C65.8416 39.2881 65.9661 39.2617 66.0569 39.209C66.1478 39.1533 66.2151 39.0815 66.2591 38.9937C66.306 38.9058 66.3353 38.8047 66.347 38.6904C66.3587 38.5762 66.3646 38.459 66.3646 38.3389V38.2642ZM69.7563 33.1094V36.9458H70.1869L71.1317 34.7178H71.9755L70.7978 37.3589L72.1293 40H71.2152L70.1781 37.75H69.7563V40H68.9345V33.1094H69.7563ZM73.4907 33.5049C73.4907 33.2178 73.6548 33.0742 73.9829 33.0742C74.1646 33.0742 74.2949 33.1108 74.374 33.1841C74.4531 33.2544 74.4927 33.3613 74.4927 33.5049C74.4927 33.6455 74.4531 33.751 74.374 33.8213C74.2949 33.8887 74.1646 33.9224 73.9829 33.9224C73.6548 33.9224 73.4907 33.7832 73.4907 33.5049ZM73.5786 40V34.7178H74.4004V40H73.5786ZM78.5172 40V36.5635C78.5172 36.4199 78.5143 36.2808 78.5084 36.146C78.5025 36.0083 78.4791 35.8867 78.4381 35.7812C78.3971 35.6729 78.3326 35.5864 78.2447 35.522C78.1568 35.4575 78.0294 35.4253 77.8624 35.4253C77.7101 35.4253 77.5885 35.4648 77.4977 35.5439C77.4068 35.6201 77.3365 35.7197 77.2867 35.8428C77.2398 35.9658 77.2091 36.105 77.1944 36.2603C77.1798 36.4126 77.1725 36.5649 77.1725 36.7173V40H76.3507V34.7178H77.1725V35.3022C77.2105 35.2114 77.2604 35.125 77.3219 35.043C77.3834 34.9609 77.4552 34.8906 77.5372 34.832C77.6222 34.7734 77.7159 34.7266 77.8185 34.6914C77.921 34.6562 78.0309 34.6387 78.148 34.6387C78.3355 34.6387 78.4952 34.6636 78.6271 34.7134C78.7618 34.7632 78.8731 34.8335 78.961 34.9243C79.0489 35.0122 79.1178 35.1177 79.1676 35.2407C79.2174 35.3638 79.2555 35.4971 79.2818 35.6406C79.3082 35.7842 79.3243 35.9351 79.3302 36.0933C79.336 36.2515 79.339 36.4126 79.339 36.5767V40H78.5172ZM84.0886 34.7178V40.0396C84.0886 40.3091 84.0681 40.5522 84.0271 40.769C83.986 40.9858 83.9143 41.1689 83.8117 41.3184C83.7121 41.4707 83.5759 41.5879 83.403 41.6699C83.2331 41.752 83.0178 41.793 82.757 41.793C82.4992 41.793 82.2663 41.7739 82.0583 41.7358C81.8503 41.6978 81.6818 41.645 81.5529 41.5776L81.6145 40.8833C81.6672 40.9067 81.7331 40.9258 81.8122 40.9404C81.8942 40.958 81.9807 40.9727 82.0715 40.9844C82.1652 40.9961 82.2619 41.0034 82.3615 41.0063C82.4611 41.0122 82.5549 41.0151 82.6428 41.0151C82.7541 41.0151 82.8479 40.9976 82.924 40.9624C83.0031 40.9302 83.0676 40.8745 83.1174 40.7954C83.1672 40.7192 83.2038 40.6196 83.2272 40.4966C83.2507 40.3735 83.2624 40.2212 83.2624 40.0396V39.4639C83.195 39.6484 83.0939 39.7979 82.9592 39.9121C82.8273 40.0264 82.6457 40.0835 82.4143 40.0835C82.1154 40.0835 81.8781 40.0293 81.7023 39.9209C81.5266 39.8096 81.3933 39.6631 81.3024 39.4814C81.2146 39.2998 81.1574 39.0933 81.1311 38.8618C81.1047 38.6274 81.0915 38.3872 81.0915 38.1411V36.5767C81.0915 36.4097 81.0959 36.2456 81.1047 36.0845C81.1164 35.9233 81.1384 35.771 81.1706 35.6274C81.2028 35.4839 81.2482 35.3521 81.3068 35.2319C81.3654 35.1089 81.4431 35.0034 81.5397 34.9155C81.6364 34.8276 81.7551 34.7588 81.8957 34.709C82.0393 34.6592 82.2092 34.6343 82.4055 34.6343C82.6398 34.6343 82.8244 34.6929 82.9592 34.8101C83.0939 34.9243 83.195 35.0737 83.2624 35.2583V34.7178H84.0886ZM82.59 39.2925C82.7248 39.2925 82.8347 39.2646 82.9196 39.209C83.0046 39.1533 83.0705 39.0801 83.1174 38.9893C83.1672 38.8955 83.2023 38.7886 83.2229 38.6685C83.2434 38.5483 83.2565 38.4224 83.2624 38.2905V36.3921C83.2565 36.269 83.2434 36.1504 83.2229 36.0361C83.2053 35.9189 83.1716 35.8149 83.1218 35.7241C83.0749 35.6333 83.0075 35.5615 82.9196 35.5088C82.8347 35.4531 82.7248 35.4253 82.59 35.4253C82.4318 35.4253 82.3073 35.4561 82.2165 35.5176C82.1286 35.5791 82.0612 35.6626 82.0144 35.7681C81.9704 35.8735 81.9426 35.9951 81.9309 36.1328C81.9221 36.2705 81.9177 36.4155 81.9177 36.5679V38.1543C81.9177 38.3008 81.9221 38.4429 81.9309 38.5806C81.9396 38.7153 81.9646 38.8354 82.0056 38.9409C82.0495 39.0464 82.1169 39.1313 82.2077 39.1958C82.2985 39.2603 82.426 39.2925 82.59 39.2925Z" fill="white"/>
</svg>
