<svg width="106" height="42" viewBox="0 0 106 42" fill="none" xmlns="http://www.w3.org/2000/svg">
<line x1="10" y1="2.75" x2="1" y2="2.75" stroke="white" stroke-width="1.5"/>
<line x1="10" y1="36.75" x2="1" y2="36.75" stroke="white" stroke-width="1.5"/>
<line x1="1.75" y1="3" x2="1.75" y2="36" stroke="white" stroke-width="1.5"/>
<line y1="-0.75" x2="9" y2="-0.75" transform="matrix(1 0 0 -1 96 2)" stroke="white" stroke-width="1.5"/>
<line y1="-0.75" x2="9" y2="-0.75" transform="matrix(1 0 0 -1 96 36)" stroke="white" stroke-width="1.5"/>
<line y1="-0.75" x2="33" y2="-0.75" transform="matrix(0 1 1 0 105 3)" stroke="white" stroke-width="1.5"/>
<path d="M24.7109 28V11.4531H19.7891V22.9258C19.7891 23.9023 19.7422 24.7266 19.6484 25.3984C19.5625 26.0625 19.3984 26.6055 19.1562 27.0273C18.9141 27.4414 18.5742 27.7422 18.1367 27.9297C17.707 28.1094 17.1484 28.1992 16.4609 28.1992V26.9219C16.9141 26.9219 17.2695 26.8516 17.5273 26.7109C17.793 26.5703 17.9922 26.3438 18.125 26.0312C18.2578 25.7109 18.3438 25.2969 18.3828 24.7891C18.4219 24.2812 18.4414 23.6562 18.4414 22.9141V10.1758L19.6016 10.1875H26.0586V28H24.7109ZM30.1367 23.5586C30.1367 24.0039 30.1523 24.4297 30.1836 24.8359C30.2227 25.2422 30.3203 25.6016 30.4766 25.9141C30.6328 26.2188 30.8672 26.4648 31.1797 26.6523C31.5 26.8398 31.9414 26.9336 32.5039 26.9336C32.9102 26.9336 33.25 26.8789 33.5234 26.7695C33.8047 26.6523 34.0312 26.4961 34.2031 26.3008C34.3828 26.1055 34.5156 25.875 34.6016 25.6094C34.6953 25.3359 34.7617 25.043 34.8008 24.7305C34.8398 24.3633 34.8633 23.9805 34.8711 23.582C34.8789 23.1836 34.8828 22.7734 34.8828 22.3516V21.4961L30.4062 21.4844V20.2539L34.8828 20.3008V19.1758C34.8828 18.5898 34.8633 18.043 34.8242 17.5352C34.793 17.0195 34.6992 16.5742 34.543 16.1992C34.3867 15.8164 34.1484 15.5156 33.8281 15.2969C33.5156 15.0781 33.0742 14.9688 32.5039 14.9688C32.1133 14.9688 31.7812 15.0156 31.5078 15.1094C31.2422 15.1953 31.0195 15.3203 30.8398 15.4844C30.668 15.6406 30.5312 15.8281 30.4297 16.0469C30.3359 16.2578 30.2656 16.4883 30.2188 16.7383C30.1797 16.9805 30.1562 17.2383 30.1484 17.5117C30.1406 17.7852 30.1367 18.0547 30.1367 18.3203V18.4727H28.8125V18.3203C28.8125 18 28.8203 17.6641 28.8359 17.3125C28.8516 16.9609 28.8945 16.6172 28.9648 16.2812C29.043 15.9375 29.1562 15.6133 29.3047 15.3086C29.4609 14.9961 29.6758 14.7227 29.9492 14.4883C30.2227 14.2539 30.5664 14.0664 30.9805 13.9258C31.4023 13.7852 31.9102 13.7148 32.5039 13.7148C33.2695 13.7148 33.8867 13.8359 34.3555 14.0781C34.832 14.3203 35.2031 14.6484 35.4688 15.0625C35.7422 15.4688 35.9258 15.9375 36.0195 16.4688C36.1211 17 36.1797 17.5547 36.1953 18.1328C36.2031 18.3516 36.207 18.5664 36.207 18.7773C36.207 18.9883 36.207 19.2031 36.207 19.4219V22.7617C36.207 23.1758 36.1992 23.5977 36.1836 24.0273C36.168 24.457 36.1211 24.875 36.043 25.2812C35.9648 25.6797 35.8477 26.0586 35.6914 26.418C35.543 26.7695 35.332 27.0781 35.0586 27.3438C34.7852 27.6016 34.4375 27.8086 34.0156 27.9648C33.6016 28.1133 33.0977 28.1875 32.5039 28.1875C31.9102 28.1875 31.4062 28.1211 30.9922 27.9883C30.5859 27.8477 30.2461 27.6641 29.9727 27.4375C29.6992 27.2031 29.4844 26.9336 29.3281 26.6289C29.1719 26.3242 29.0547 26 28.9766 25.6562C28.9062 25.3125 28.8594 24.9648 28.8359 24.6133C28.8203 24.2539 28.8125 23.9062 28.8125 23.5703V23.4414H30.1367V23.5586ZM39.1836 28V13.9141H40.5078V20.4531H45.2422V13.9141H46.5781V28H45.2422V21.7656H40.5078V28H39.1836ZM57.1719 26.7461H58.6016V30.0508H57.2773V28H49.8828V30.0508H48.5586V26.7461H48.5938C48.9453 26.7461 49.2617 26.5117 49.543 26.043C49.832 25.5664 50.0781 24.8984 50.2812 24.0391C50.4844 23.1797 50.6406 22.1445 50.75 20.9336C50.8594 19.7148 50.9141 18.3594 50.9141 16.8672V13.9141H57.1719V26.7461ZM52.25 17.1602C52.25 18.1758 52.2227 19.1719 52.168 20.1484C52.1133 21.1172 52.0156 22.0234 51.875 22.8672C51.7422 23.7031 51.5547 24.457 51.3125 25.1289C51.0781 25.793 50.7773 26.332 50.4102 26.7461H55.8477V15.168H52.25V17.1602ZM60.6055 28V10.1875H68.2227V28H66.875V11.4531H61.9531V28H60.6055ZM77.1523 28V26.3008C77.0586 26.5742 76.9414 26.8281 76.8008 27.0625C76.6602 27.2969 76.4844 27.5 76.2734 27.6719C76.0703 27.8359 75.8281 27.9648 75.5469 28.0586C75.2734 28.1523 74.9531 28.1992 74.5859 28.1992C73.8438 28.1992 73.2383 28.0781 72.7695 27.8359C72.3086 27.5938 71.9453 27.2734 71.6797 26.875C71.4219 26.4688 71.2461 26.0117 71.1523 25.5039C71.0586 24.9883 71.0117 24.4609 71.0117 23.9219C71.0117 23.4531 71.0391 22.9844 71.0938 22.5156C71.1484 22.0469 71.2891 21.6289 71.5156 21.2617C71.75 20.8945 72.1055 20.5977 72.582 20.3711C73.0586 20.1367 73.7188 20.0195 74.5625 20.0195C74.8828 20.0195 75.1719 20.0352 75.4297 20.0664C75.6875 20.0898 75.918 20.125 76.1211 20.1719C76.3242 20.2109 76.5078 20.2578 76.6719 20.3125C76.8438 20.3672 77.0039 20.4258 77.1523 20.4883V19.1758C77.1523 18.5898 77.1328 18.043 77.0938 17.5352C77.0625 17.0195 76.9688 16.5742 76.8125 16.1992C76.6562 15.8164 76.418 15.5156 76.0977 15.2969C75.7852 15.0781 75.3438 14.9688 74.7734 14.9688C74.2578 14.9688 73.8516 15.0703 73.5547 15.2734C73.2578 15.4688 73.0312 15.7266 72.875 16.0469C72.7188 16.3594 72.6172 16.7148 72.5703 17.1133C72.5312 17.5117 72.5117 17.9141 72.5117 18.3203V18.4727H71.1758V18.3203C71.1758 18 71.1875 17.6641 71.2109 17.3125C71.2344 16.9609 71.2852 16.6172 71.3633 16.2812C71.4492 15.9375 71.5703 15.6133 71.7266 15.3086C71.8906 14.9961 72.1055 14.7227 72.3711 14.4883C72.6367 14.2539 72.9648 14.0664 73.3555 13.9258C73.7461 13.7852 74.2188 13.7148 74.7734 13.7148C75.5391 13.7148 76.1602 13.8359 76.6367 14.0781C77.1211 14.3203 77.5 14.6484 77.7734 15.0625C78.0469 15.4688 78.2305 15.9375 78.3242 16.4688C78.4258 17 78.4766 17.5547 78.4766 18.1328V28H77.1523ZM74.7734 26.9453C75.2734 26.9453 75.6758 26.8438 75.9805 26.6406C76.293 26.4297 76.5352 26.1484 76.707 25.7969C76.8789 25.4453 76.9961 25.043 77.0586 24.5898C77.1211 24.1289 77.1523 23.6484 77.1523 23.1484V21.7305C77.0195 21.6367 76.8789 21.5547 76.7305 21.4844C76.582 21.4062 76.4141 21.3438 76.2266 21.2969C76.0391 21.25 75.8242 21.2148 75.582 21.1914C75.3398 21.168 75.0625 21.1562 74.75 21.1562C74.1875 21.1562 73.7461 21.2422 73.4258 21.4141C73.1055 21.5781 72.8633 21.793 72.6992 22.0586C72.543 22.3164 72.4453 22.6094 72.4062 22.9375C72.3672 23.2656 72.3477 23.5938 72.3477 23.9219C72.3477 24.3438 72.3789 24.7422 72.4414 25.1172C72.5117 25.4844 72.6367 25.8047 72.8164 26.0781C72.9961 26.3438 73.2422 26.5547 73.5547 26.7109C73.875 26.8672 74.2812 26.9453 74.7734 26.9453ZM83.0586 13.9258V20.3242H84.3711L87.6406 13.9141H89.0352L85.3789 20.9453L89.5273 28H88.0391L84.3359 21.5898H83.0586V28H81.7227V13.9258H83.0586Z" fill="white"/>
<path d="M22.4834 40V34.7178H24.9355V35.5396H23.3096V40H22.4834ZM27.0542 40H26.0523V34.7178H26.8916V38.2334L28.0957 34.7178L28.8121 34.7134V34.7178H29.1021L29.0801 40H28.2364V36.4492L27.0542 40ZM33.752 33.105C33.7169 33.2339 33.6744 33.3555 33.6246 33.4697C33.5777 33.584 33.5045 33.6836 33.4049 33.7686C33.3082 33.8506 33.1749 33.9165 33.005 33.9663C32.835 34.0132 32.6095 34.0366 32.3282 34.0366C32.1612 34.0366 32.0235 34.0674 31.9151 34.1289C31.8067 34.1875 31.7203 34.2681 31.6558 34.3706C31.5914 34.4731 31.543 34.5947 31.5108 34.7354C31.4815 34.873 31.4625 35.0225 31.4537 35.1836C31.5562 35.0137 31.6866 34.8789 31.8448 34.7793C32.003 34.6797 32.1832 34.6299 32.3853 34.6299C32.5846 34.6299 32.753 34.6562 32.8907 34.709C33.0313 34.7588 33.1485 34.8291 33.2423 34.9199C33.336 35.0078 33.4093 35.1133 33.462 35.2363C33.5147 35.3564 33.5543 35.4883 33.5806 35.6318C33.607 35.7754 33.6231 35.9277 33.629 36.0889C33.6378 36.2471 33.6422 36.4082 33.6422 36.5723V38.1367C33.6422 38.4092 33.6275 38.6641 33.5982 38.9014C33.5689 39.1357 33.5015 39.3408 33.3961 39.5166C33.2935 39.6924 33.1427 39.8301 32.9434 39.9297C32.7442 40.0293 32.4762 40.0791 32.1392 40.0791C31.9195 40.0791 31.7291 40.0527 31.5679 40C31.4097 39.9502 31.275 39.8813 31.1637 39.7935C31.0553 39.7026 30.9659 39.5957 30.8956 39.4727C30.8282 39.3496 30.7755 39.2178 30.7374 39.0771C30.7022 38.9336 30.6773 38.7827 30.6627 38.6245C30.651 38.4663 30.6451 38.3052 30.6451 38.1411V36.1372C30.6451 35.7476 30.6671 35.3857 30.711 35.0518C30.755 34.7178 30.8326 34.4277 30.9439 34.1816C31.0553 33.9355 31.2076 33.7422 31.401 33.6016C31.5972 33.4609 31.8448 33.3877 32.1436 33.3818C32.3253 33.3789 32.4732 33.3657 32.5875 33.3423C32.7017 33.3159 32.7926 33.2881 32.8599 33.2588C32.9273 33.2266 32.9757 33.1958 33.005 33.1665C33.0372 33.1343 33.0621 33.1123 33.0797 33.1006L33.752 33.105ZM31.4713 38.1499C31.4713 38.2935 31.4757 38.4341 31.4845 38.5718C31.4932 38.7065 31.5181 38.8281 31.5592 38.9365C31.6031 39.042 31.6705 39.127 31.7613 39.1914C31.8521 39.2559 31.9796 39.2881 32.1436 39.2881C32.3018 39.2881 32.4263 39.2573 32.5172 39.1958C32.608 39.1343 32.6754 39.0508 32.7193 38.9453C32.7633 38.8398 32.7896 38.7183 32.7984 38.5806C32.8101 38.4429 32.816 38.2979 32.816 38.1455V36.5591C32.816 36.4155 32.8116 36.2749 32.8028 36.1372C32.794 35.9995 32.7677 35.8779 32.7237 35.7725C32.6827 35.667 32.6168 35.582 32.526 35.5176C32.4351 35.4531 32.3077 35.4209 32.1436 35.4209C32.0499 35.4209 31.9679 35.4355 31.8975 35.4648C31.8302 35.4912 31.7716 35.5293 31.7218 35.5791C31.6749 35.626 31.6353 35.6831 31.6031 35.7505C31.5709 35.8179 31.546 35.8911 31.5284 35.9702C31.5167 36.0229 31.5064 36.0815 31.4976 36.146C31.4918 36.2075 31.4859 36.272 31.4801 36.3394C31.4771 36.4067 31.4742 36.4741 31.4713 36.5415C31.4713 36.6089 31.4713 36.6719 31.4713 36.7305V38.1499ZM36.0333 34.7222V36.9458H36.464L37.4088 34.7178H38.2526L37.0748 37.3589L38.4064 40H37.4923L36.4552 37.75H36.0333V40H35.2115V34.7222H36.0333ZM41.6545 40V39.4243C41.6193 39.521 41.5768 39.6104 41.527 39.6924C41.4772 39.7744 41.4171 39.8447 41.3468 39.9033C41.2765 39.959 41.1945 40.0029 41.1007 40.0352C41.0099 40.0674 40.9045 40.0835 40.7843 40.0835C40.5148 40.0835 40.2936 40.0396 40.1208 39.9517C39.9479 39.8638 39.8117 39.7451 39.7121 39.5957C39.6125 39.4463 39.5436 39.272 39.5055 39.0728C39.4674 38.8706 39.4484 38.6567 39.4484 38.4312C39.4484 38.2202 39.4616 38.0254 39.4879 37.8467C39.5172 37.665 39.5773 37.5098 39.6681 37.3809C39.7619 37.249 39.8952 37.1465 40.068 37.0732C40.2438 36.9971 40.4796 36.959 40.7755 36.959C40.9865 36.959 41.1593 36.9736 41.2941 37.0029C41.4289 37.0293 41.5475 37.0615 41.6501 37.0996V36.5635C41.6501 36.4111 41.6442 36.2661 41.6325 36.1284C41.6237 35.9907 41.5973 35.8691 41.5534 35.7637C41.5094 35.6582 41.4421 35.5747 41.3512 35.5132C41.2604 35.4517 41.1359 35.4209 40.9777 35.4209C40.8312 35.4209 40.714 35.4502 40.6261 35.5088C40.5412 35.5645 40.4767 35.6377 40.4328 35.7285C40.3888 35.8193 40.3595 35.9219 40.3449 36.0361C40.3332 36.1475 40.3273 36.2573 40.3273 36.3657V36.4536H39.5055V36.3745C39.5055 36.1636 39.5231 35.9541 39.5583 35.7461C39.5934 35.5381 39.6623 35.3521 39.7648 35.188C39.8703 35.021 40.0182 34.8862 40.2087 34.7837C40.402 34.6812 40.6569 34.6299 40.9733 34.6299C41.2721 34.6299 41.5182 34.6753 41.7116 34.7661C41.9079 34.854 42.0617 34.9756 42.173 35.1309C42.2843 35.2832 42.362 35.4634 42.4059 35.6714C42.4499 35.8765 42.4718 36.0962 42.4718 36.3306V40H41.6545ZM40.9601 39.2925C41.1037 39.2925 41.2194 39.2617 41.3073 39.2002C41.3981 39.1357 41.4684 39.0537 41.5182 38.9541C41.568 38.8516 41.6017 38.7358 41.6193 38.6069C41.6398 38.478 41.6501 38.3477 41.6501 38.2158V37.8159C41.571 37.7632 41.4757 37.7222 41.3644 37.6929C41.256 37.6636 41.1169 37.6489 40.9469 37.6489C40.7887 37.6489 40.6642 37.6724 40.5734 37.7192C40.4855 37.7661 40.4196 37.8276 40.3756 37.9038C40.3317 37.98 40.3039 38.0649 40.2921 38.1587C40.2804 38.2524 40.2746 38.3477 40.2746 38.4443C40.2746 38.5586 40.2834 38.6685 40.3009 38.7739C40.3185 38.8765 40.3522 38.9658 40.402 39.042C40.4547 39.1182 40.5251 39.1797 40.6129 39.2266C40.7038 39.2705 40.8195 39.2925 40.9601 39.2925ZM46.0012 40V37.9961H45.5529C45.4738 38.0078 45.3962 38.0283 45.32 38.0576C45.2468 38.084 45.1779 38.1309 45.1135 38.1982C45.052 38.2627 44.9978 38.3521 44.9509 38.4663C44.904 38.5776 44.8674 38.7256 44.841 38.9102L44.7839 39.3188C44.7604 39.4771 44.7326 39.6147 44.7004 39.7319C44.6682 39.8462 44.6389 39.9355 44.6125 40H43.76C43.8068 39.9004 43.8479 39.7979 43.883 39.6924C43.9182 39.584 43.9445 39.4521 43.9621 39.2969L44.0148 38.8882C44.0383 38.7095 44.0646 38.5601 44.0939 38.4399C44.1232 38.3198 44.1599 38.2173 44.2038 38.1323C44.2478 38.0444 44.302 37.9712 44.3664 37.9126C44.4309 37.8511 44.5085 37.7925 44.5993 37.7368C44.3884 37.605 44.217 37.4292 44.0852 37.2095C43.9562 36.9897 43.8918 36.7334 43.8918 36.4404V36.2251C43.8918 35.9731 43.9196 35.7534 43.9753 35.5659C44.0339 35.3755 44.1247 35.2188 44.2478 35.0957C44.3708 34.9697 44.5275 34.876 44.718 34.8145C44.9084 34.75 45.1369 34.7178 45.4035 34.7178H46.8229V40H46.0012ZM44.7136 36.4404C44.7165 36.6836 44.7751 36.8726 44.8894 37.0073C45.0065 37.1421 45.1823 37.2095 45.4167 37.2095H46.0012V35.5044H45.4079C45.1882 35.5044 45.0168 35.5571 44.8937 35.6626C44.7736 35.7681 44.7136 35.9526 44.7136 36.2163V36.4404ZM53.451 34.7134L52.5896 38.9585L52.3743 40.3076C52.3421 40.5098 52.2908 40.6943 52.2205 40.8613C52.1502 41.0283 52.0652 41.1763 51.9656 41.3052C51.8689 41.437 51.7605 41.5498 51.6404 41.6436C51.5232 41.7373 51.4016 41.812 51.2757 41.8677L50.9109 41.2964C50.9842 41.2583 51.0603 41.21 51.1394 41.1514C51.2185 41.0957 51.2918 41.0269 51.3592 40.9448C51.4295 40.8628 51.491 40.7661 51.5437 40.6548C51.5965 40.5435 51.6346 40.4131 51.658 40.2637L51.6975 40H51.201L50.1287 34.7134H50.9812L51.7722 39.2134H51.803L52.6028 34.7134H53.451ZM54.6029 40V34.7178H57.6219V40H56.7957V35.5088H55.4334V40H54.6029ZM61.3138 40V39.4243C61.2787 39.521 61.2362 39.6104 61.1864 39.6924C61.1366 39.7744 61.0765 39.8447 61.0062 39.9033C60.9359 39.959 60.8539 40.0029 60.7601 40.0352C60.6693 40.0674 60.5638 40.0835 60.4437 40.0835C60.1742 40.0835 59.953 40.0396 59.7801 39.9517C59.6073 39.8638 59.4711 39.7451 59.3714 39.5957C59.2718 39.4463 59.203 39.272 59.1649 39.0728C59.1268 38.8706 59.1078 38.6567 59.1078 38.4312C59.1078 38.2202 59.121 38.0254 59.1473 37.8467C59.1766 37.665 59.2367 37.5098 59.3275 37.3809C59.4212 37.249 59.5546 37.1465 59.7274 37.0732C59.9032 36.9971 60.139 36.959 60.4349 36.959C60.6459 36.959 60.8187 36.9736 60.9535 37.0029C61.0882 37.0293 61.2069 37.0615 61.3094 37.0996V36.5635C61.3094 36.4111 61.3036 36.2661 61.2919 36.1284C61.2831 35.9907 61.2567 35.8691 61.2128 35.7637C61.1688 35.6582 61.1014 35.5747 61.0106 35.5132C60.9198 35.4517 60.7953 35.4209 60.6371 35.4209C60.4906 35.4209 60.3734 35.4502 60.2855 35.5088C60.2005 35.5645 60.1361 35.6377 60.0921 35.7285C60.0482 35.8193 60.0189 35.9219 60.0043 36.0361C59.9925 36.1475 59.9867 36.2573 59.9867 36.3657V36.4536H59.1649V36.3745C59.1649 36.1636 59.1825 35.9541 59.2176 35.7461C59.2528 35.5381 59.3216 35.3521 59.4242 35.188C59.5296 35.021 59.6776 34.8862 59.868 34.7837C60.0614 34.6812 60.3163 34.6299 60.6327 34.6299C60.9315 34.6299 61.1776 34.6753 61.371 34.7661C61.5672 34.854 61.7211 34.9756 61.8324 35.1309C61.9437 35.2832 62.0213 35.4634 62.0653 35.6714C62.1092 35.8765 62.1312 36.0962 62.1312 36.3306V40H61.3138ZM60.6195 39.2925C60.763 39.2925 60.8788 39.2617 60.9667 39.2002C61.0575 39.1357 61.1278 39.0537 61.1776 38.9541C61.2274 38.8516 61.2611 38.7358 61.2787 38.6069C61.2992 38.478 61.3094 38.3477 61.3094 38.2158V37.8159C61.2303 37.7632 61.1351 37.7222 61.0238 37.6929C60.9154 37.6636 60.7762 37.6489 60.6063 37.6489C60.4481 37.6489 60.3236 37.6724 60.2328 37.7192C60.1449 37.7661 60.079 37.8276 60.035 37.9038C59.9911 37.98 59.9632 38.0649 59.9515 38.1587C59.9398 38.2524 59.9339 38.3477 59.9339 38.4443C59.9339 38.5586 59.9427 38.6685 59.9603 38.7739C59.9779 38.8765 60.0116 38.9658 60.0614 39.042C60.1141 39.1182 60.1844 39.1797 60.2723 39.2266C60.3631 39.2705 60.4789 39.2925 60.6195 39.2925ZM64.5795 34.7222V36.9458H65.0102L65.955 34.7178H66.7987L65.621 37.3589L66.9525 40H66.0385L65.0014 37.75H64.5795V40H63.7577V34.7222H64.5795ZM67.9946 36.5767C67.9946 36.4097 68.0004 36.2456 68.0121 36.0845C68.0268 35.9233 68.0532 35.771 68.0913 35.6274C68.1293 35.4839 68.1821 35.3506 68.2495 35.2275C68.3198 35.1045 68.4106 34.999 68.5219 34.9111C68.6332 34.8232 68.768 34.7544 68.9262 34.7046C69.0844 34.6548 69.2734 34.6299 69.4931 34.6299C69.8242 34.6299 70.0878 34.6855 70.2841 34.7969C70.4833 34.9053 70.6342 35.0503 70.7368 35.2319C70.8422 35.4136 70.9111 35.6216 70.9433 35.856C70.9755 36.0874 70.9916 36.3262 70.9916 36.5723V38.1367C70.9916 38.3887 70.9755 38.6318 70.9433 38.8662C70.9111 39.0977 70.8422 39.3042 70.7368 39.4858C70.6342 39.6646 70.4848 39.8081 70.2885 39.9165C70.0922 40.0249 69.83 40.0791 69.5019 40.0791C69.1679 40.0791 68.9013 40.0249 68.7021 39.9165C68.5058 39.8052 68.3549 39.6587 68.2495 39.4771C68.144 39.2954 68.0751 39.0889 68.0429 38.8574C68.0107 38.626 67.9946 38.3872 67.9946 38.1411V36.5767ZM69.4931 35.4209C69.3349 35.4209 69.2104 35.4517 69.1196 35.5132C69.0288 35.5747 68.9614 35.6582 68.9174 35.7637C68.8735 35.8691 68.8456 35.9907 68.8339 36.1284C68.8251 36.2661 68.8207 36.4111 68.8207 36.5635V38.1499C68.8207 38.2935 68.8251 38.4341 68.8339 38.5718C68.8427 38.7065 68.8676 38.8281 68.9086 38.9365C68.9526 39.042 69.02 39.127 69.1108 39.1914C69.2016 39.2559 69.329 39.2881 69.4931 39.2881C69.6513 39.2881 69.7758 39.2573 69.8666 39.1958C69.9575 39.1343 70.0248 39.0508 70.0688 38.9453C70.1127 38.8398 70.1391 38.7183 70.1479 38.5806C70.1596 38.4429 70.1655 38.2979 70.1655 38.1455V36.5591C70.1655 36.4155 70.1611 36.2749 70.1523 36.1372C70.1435 35.9995 70.1171 35.8779 70.0732 35.7725C70.0322 35.667 69.9663 35.582 69.8754 35.5176C69.7846 35.4531 69.6572 35.4209 69.4931 35.4209ZM73.8222 34.7178C74.3525 34.7178 74.7392 34.8423 74.9824 35.0913C75.2285 35.3403 75.3515 35.7124 75.3515 36.2075V36.2383C75.3515 36.5049 75.2973 36.7246 75.1889 36.8975C75.0805 37.0703 74.937 37.208 74.7583 37.3105C74.9575 37.416 75.1172 37.564 75.2373 37.7544C75.3574 37.9419 75.4175 38.1777 75.4175 38.4619V38.4927C75.4175 38.9966 75.2988 39.3745 75.0615 39.6265C74.8242 39.8755 74.4404 40 73.9101 40H72.4907V34.7178H73.8222ZM74.6001 38.4619C74.5971 38.2158 74.5356 38.0254 74.4155 37.8906C74.2983 37.7559 74.1255 37.6885 73.897 37.6885H73.3081V39.2134H73.9057C74.1196 39.2134 74.2881 39.1606 74.4111 39.0552C74.5371 38.9497 74.6001 38.7651 74.6001 38.5015V38.4619ZM74.5122 36.1987C74.5122 36.0669 74.4946 35.957 74.4595 35.8691C74.4272 35.7783 74.3804 35.7065 74.3188 35.6538C74.2602 35.5981 74.1885 35.5601 74.1035 35.5396C74.0185 35.5161 73.9233 35.5044 73.8179 35.5044H73.3081V36.9458H73.8091C74.0464 36.9458 74.2221 36.8887 74.3364 36.7744C74.4507 36.6602 74.5093 36.4814 74.5122 36.2383V36.1987ZM77.813 34.7222V36.9458H78.2437L79.1885 34.7178H80.0322L78.8545 37.3589L80.1861 40H79.272L78.2349 37.75H77.813V40H76.9912V34.7222H77.813ZM83.4341 40V39.4243C83.399 39.521 83.3565 39.6104 83.3067 39.6924C83.2569 39.7744 83.1968 39.8447 83.1265 39.9033C83.0562 39.959 82.9742 40.0029 82.8804 40.0352C82.7896 40.0674 82.6841 40.0835 82.564 40.0835C82.2945 40.0835 82.0733 40.0396 81.9004 39.9517C81.7276 39.8638 81.5914 39.7451 81.4918 39.5957C81.3921 39.4463 81.3233 39.272 81.2852 39.0728C81.2471 38.8706 81.2281 38.6567 81.2281 38.4312C81.2281 38.2202 81.2413 38.0254 81.2676 37.8467C81.2969 37.665 81.357 37.5098 81.4478 37.3809C81.5416 37.249 81.6749 37.1465 81.8477 37.0732C82.0235 36.9971 82.2593 36.959 82.5552 36.959C82.7662 36.959 82.939 36.9736 83.0738 37.0029C83.2086 37.0293 83.3272 37.0615 83.4297 37.0996V36.5635C83.4297 36.4111 83.4239 36.2661 83.4122 36.1284C83.4034 35.9907 83.377 35.8691 83.3331 35.7637C83.2891 35.6582 83.2217 35.5747 83.1309 35.5132C83.0401 35.4517 82.9156 35.4209 82.7574 35.4209C82.6109 35.4209 82.4937 35.4502 82.4058 35.5088C82.3209 35.5645 82.2564 35.6377 82.2125 35.7285C82.1685 35.8193 82.1392 35.9219 82.1246 36.0361C82.1129 36.1475 82.107 36.2573 82.107 36.3657V36.4536H81.2852V36.3745C81.2852 36.1636 81.3028 35.9541 81.3379 35.7461C81.3731 35.5381 81.442 35.3521 81.5445 35.188C81.65 35.021 81.7979 34.8862 81.9883 34.7837C82.1817 34.6812 82.4366 34.6299 82.753 34.6299C83.0518 34.6299 83.2979 34.6753 83.4913 34.7661C83.6876 34.854 83.8414 34.9756 83.9527 35.1309C84.064 35.2832 84.1417 35.4634 84.1856 35.6714C84.2295 35.8765 84.2515 36.0962 84.2515 36.3306V40H83.4341ZM82.7398 39.2925C82.8834 39.2925 82.9991 39.2617 83.087 39.2002C83.1778 39.1357 83.2481 39.0537 83.2979 38.9541C83.3477 38.8516 83.3814 38.7358 83.399 38.6069C83.4195 38.478 83.4297 38.3477 83.4297 38.2158V37.8159C83.3506 37.7632 83.2554 37.7222 83.1441 37.6929C83.0357 37.6636 82.8965 37.6489 82.7266 37.6489C82.5684 37.6489 82.4439 37.6724 82.3531 37.7192C82.2652 37.7661 82.1993 37.8276 82.1553 37.9038C82.1114 37.98 82.0836 38.0649 82.0718 38.1587C82.0601 38.2524 82.0543 38.3477 82.0543 38.4443C82.0543 38.5586 82.063 38.6685 82.0806 38.7739C82.0982 38.8765 82.1319 38.9658 82.1817 39.042C82.2344 39.1182 82.3047 39.1797 82.3926 39.2266C82.4835 39.2705 82.5992 39.2925 82.7398 39.2925Z" fill="white"/>
</svg>
