<svg width="50" height="50" viewBox="0 0 50 50" fill="none" xmlns="http://www.w3.org/2000/svg">
<path d="M25.0007 3.25537C36.9913 3.25537 46.7454 13.0095 46.7454 25.0002C46.7454 36.9908 36.9913 46.745 25.0007 46.745C13.01 46.745 3.25586 36.9908 3.25586 25.0002C3.25586 13.0095 13.01 3.25537 25.0007 3.25537ZM25.0007 0.130371C11.2652 0.130371 0.130859 11.2647 0.130859 25.0002C0.130859 38.7356 11.2652 49.87 25.0007 49.87C38.7361 49.87 49.8704 38.7356 49.8704 25.0002C49.8704 11.2647 38.7361 0.130371 25.0007 0.130371Z" fill="white"/>
<path d="M26.5625 37.5345C26.5625 38.397 25.8635 39.097 25 39.097C24.1365 39.097 23.4375 38.397 23.4375 37.5345V17.573L16.1167 24.9282C15.8115 25.2345 15.4104 25.3886 15.0094 25.3886C14.6104 25.3886 14.2115 25.2366 13.9073 24.9334C13.2958 24.3251 13.2938 23.3355 13.9021 22.7241L23.8927 12.6855C24.1854 12.3907 24.5844 12.2251 25 12.2251H25.001C25.4167 12.2251 25.8167 12.3918 26.1083 12.6866L36.0688 22.7251C36.6771 23.3376 36.6729 24.3272 36.0604 24.9355C35.4469 25.5428 34.4583 25.5397 33.851 24.9272L26.5656 17.5845L26.5625 37.5345Z" fill="white"/>
</svg>
